<svg width="911" height="512" viewBox="0 0 911 512" fill="none" xmlns="http://www.w3.org/2000/svg">
<g clip-path="url(#clip0)">
<rect width="911" height="512" fill="white"/>
<rect width="911" height="512.125" fill="white"/>
<rect x="125.262" width="0.474472" height="512" fill="#C4C4C4"/>
<rect x="169.389" width="0.474487" height="512" fill="#C4C4C4"/>
<rect x="181.251" width="0.474487" height="512" fill="#C4C4C4"/>
<rect x="225.378" width="0.474487" height="512" fill="#C4C4C4"/>
<rect x="237.24" width="0.474442" height="512" fill="#C4C4C4"/>
<rect x="281.366" width="0.474518" height="512" fill="#C4C4C4"/>
<rect x="293.228" width="0.474457" height="512" fill="#C4C4C4"/>
<rect x="337.355" width="0.474487" height="512" fill="#C4C4C4"/>
<rect x="349.217" width="0.474518" height="512" fill="#C4C4C4"/>
<rect x="393.343" width="0.474487" height="512" fill="#C4C4C4"/>
<rect x="405.205" width="0.474457" height="512" fill="#C4C4C4"/>
<rect x="449.332" width="0.474426" height="512" fill="#C4C4C4"/>
<rect x="461.194" width="0.474518" height="512" fill="#C4C4C4"/>
<rect x="505.32" width="0.474457" height="512" fill="#C4C4C4"/>
<rect x="517.182" width="0.474487" height="512" fill="#C4C4C4"/>
<rect x="561.309" width="0.474487" height="512" fill="#C4C4C4"/>
<rect x="573.171" width="0.474487" height="512" fill="#C4C4C4"/>
<rect x="617.297" width="0.474487" height="512" fill="#C4C4C4"/>
<rect x="629.159" width="0.474487" height="512" fill="#C4C4C4"/>
<rect x="673.286" width="0.474426" height="512" fill="#C4C4C4"/>
<rect x="685.148" width="0.474487" height="512" fill="#C4C4C4"/>
<rect x="729.274" width="0.474426" height="512" fill="#C4C4C4"/>
<rect x="741.136" width="0.474426" height="512" fill="#C4C4C4"/>
<rect x="785.263" width="0.474426" height="512" fill="#C4C4C4"/>
<rect opacity="0.1" x="181" width="45" height="512" fill="#48165D"/>
<rect opacity="0.1" x="281.5" width="12" height="512" fill="#48165D"/>
<rect opacity="0.1" width="125" height="512" fill="#48165D"/>
</g>
<defs>
<clipPath id="clip0">
<rect width="911" height="512" fill="white"/>
</clipPath>
</defs>
</svg>
